<mxfile host="app.diagrams.net" modified="2023-06-02T12:11:24.667Z" agent="Mozilla/5.0 (Windows NT 10.0; Win64; x64) AppleWebKit/537.36 (KHTML, like Gecko) Chrome/113.0.0.0 Safari/537.36" version="21.3.7" etag="hm_wrYJbvUKd0kgL4s5k" type="github">
  <diagram name="ページ1" id="NoLe2kz48_cWfPsXAwaH">
    <mxGraphModel>
      <root>
        <mxCell id="0" />
        <mxCell id="1" parent="0" />
      </root>
    </mxGraphModel>
  </diagram>
</mxfile>
